{"title":"The.Other.Side.2006.DVDRip.XviD-BeStDivX","uid":10474638,"size":732395520,"categoryP":"video","categoryS":"movies","magnet":"?xt=urn:btih:4f544aca832a53f9de71cca17987801b9902df13&amp;dn=The.Other.Side.2006.DVDRip.XviD-BeStDivX&amp;tr=udp%3A%2F%2Ftracker.openbittorrent.com%3A80&amp;tr=udp%3A%2F%2Fopen.demonii.com%3A1337&amp;tr=udp%3A%2F%2Ftracker.coppersurfer.tk%3A6969&amp;tr=udp%3A%2F%2Fexodus.desync.com%3A6969","seeders":2,"leechers":0,"uploader":null,"files":-1,"time":1404316801,"description":"Directed by \tGregg Bishop\nProduced by \tGregg Bishop\nChad Eickoff\nWritten by \tGregg Bishop\nStarring \tNathan Mobly\nJaimie Alexander\nCory Rouse\nPoncho Hodges\nMusic by \tKristopher Carter\nCinematography \tSherman Johnson\nEdited by \tGregg Bishop\nDistributed by \tAllumination Filmworks\nRelease date(s) \t\n\n    January 2006 (Slamdance Film Festival)\n    September 28, 2007 (United States)\n\nRunning time \t95 minutes\nCountry \tUnited States\nLanguage \tEnglish\n\n\nVideo\nID                             : 0\nFormat                         : MPEG-4 Visual\nFormat profile                 : Advanced Simple@L5\nFormat settings, BVOP          : Yes\nFormat settings, QPel          : No\nFormat settings, GMC           : No warppoints\nFormat settings, Matrix        : Default (H.263)\nCodec ID                       : XVID\nCodec ID/Hint                  : XviD\nDuration                       : 1h 32mn\nBit rate                       : 906 Kbps\nWidth                          : 576 pixels\nHeight                         : 320 pixels\nDisplay aspect ratio           : 16:9\nFrame rate                     : 25.000 fps\nColor space                    : YUV\nChroma subsampling             : 4:2:0\nBit depth                      : 8 bits\nScan type                      : Progressive\nCompression mode               : Lossy\nBits/(Pixel*Frame)             : 0.197\nStream size                    : 598 MiB (86%)\nWriting library                : XviD 1.2.0.dev47 (UTC 2006-11-01)\n\nAudio\nID                             : 1\nFormat                         : MPEG Audio\nFormat version                 : Version 1\nFormat profile                 : Layer 3\nMode                           : Joint stereo\nMode extension                 : MS Stereo\nCodec ID                       : 55\nCodec ID/Hint                  : MP3\nDuration                       : 1h 32mn\nBit rate mode                  : Variable\nBit rate                       : 144 Kbps\nChannel(s)                     : 2 channels\nSampling rate                  : 48.0 KHz\nCompression mode               : Lossy\nStream size                    : 92.2 MiB (13%)\nAlignment                      : Aligned on interleaves\nInterleave, duration           : 24 ms (0.60 video frame)\nInterleave, preload duration   : 497 ms\nWriting library                : LAME3.97 \nEncoding settings              : -m j -V 4 -q 3 -lowpass 17.5 --abr 144","torrent":{"xt":"urn:btih:4f544aca832a53f9de71cca17987801b9902df13","amp;dn":"The.Other.Side.2006.DVDRip.XviD-BeStDivX","amp;tr":["udp%3A%2F%2Ftracker.openbittorrent.com%3A80","udp%3A%2F%2Fopen.demonii.com%3A1337","udp%3A%2F%2Ftracker.coppersurfer.tk%3A6969","udp%3A%2F%2Fexodus.desync.com%3A6969"],"infoHash":"4f544aca832a53f9de71cca17987801b9902df13","infoHashBuffer":{"type":"Buffer","data":[79,84,74,202,131,42,83,249,222,113,204,161,121,135,128,27,153,2,223,19]},"announce":[],"urlList":[]}}